<svg t="1620486387774" class="icon" viewBox="0 0 1024 1024" version="1.1" xmlns="http://www.w3.org/2000/svg" p-id="32029" width="32" height="32"><path d="M800 160c70.692 0 128 57.308 128 128v312c0 61.618-50.144 111.762-112 112h-87c-16.15-0.238-31.537 5.729-43 16L555 848c-24.294 21.927-61.706 21.927-86 0L338 728c-11.463-10.271-26.85-16.238-43-16h-87c-61.856-0.238-112-50.382-112-112V288c0-70.692 57.308-128 128-128h576z m0 64H224c-34.993 0-63.426 28.084-63.991 62.942L160 288v312c0 26.006 21.063 47.332 47 48h88c31.794-0.238 62.274 11.458 86 33l131 119 131-119c22.874-21.09 53.271-32.998 85-33h88c26.245-0.238 47.57-21.3 48-47V288c0-34.993-28.084-63.426-62.942-63.991L800 224zM613.68 481.845c16.654 5.914 25.36 24.209 19.447 40.863C615.135 573.376 567.073 608 512.481 608c-54.574 0-102.628-34.629-120.633-85.283-5.919-16.652 2.782-34.95 19.435-40.869 16.486-5.86 34.584 2.61 40.688 18.938l0.18 0.497C461.17 526.65 485.245 544 512.482 544c26.983 0 50.846-16.997 60.06-41.95l0.276-0.758c5.914-16.654 24.209-25.361 40.863-19.447z" p-id="32030" fill="#c5c5c5"></path></svg>