<svg t="1618927898138" class="icon" viewBox="0 0 1024 1024" version="1.1" xmlns="http://www.w3.org/2000/svg" p-id="21372" width="64" height="64"><path d="M889.21 359.65L737.4 207.83a146.074 146.074 0 0 0-103.3-42.79H165.04c-40.34 0-73.04 32.7-73.04 73.04v547.83c0 40.34 32.7 73.04 73.04 73.04h693.91c40.34 0 73.04-32.7 73.04-73.04V462.95c0.01-38.75-15.38-75.91-42.78-103.3z m6.27 426.26c0 20.14-16.38 36.52-36.52 36.52H165.04c-20.14 0-36.52-16.38-36.52-36.52V238.09c0-20.14 16.38-36.52 36.52-36.52H634.1c29.27 0 56.78 11.4 77.47 32.09l151.82 151.82c20.69 20.69 32.09 48.21 32.09 77.47v322.96z" p-id="21373" fill="#424242"></path><path d="M256.35 438.96h292.17c10.09 0 18.26-8.18 18.26-18.26 0-10.08-8.18-18.26-18.26-18.26H256.35c-10.09 0-18.26 8.18-18.26 18.26 0 10.08 8.17 18.26 18.26 18.26zM731.13 585.04H256.35c-10.09 0-18.26 8.18-18.26 18.26 0 10.09 8.18 18.26 18.26 18.26h474.78c10.09 0 18.26-8.18 18.26-18.26 0-10.08-8.17-18.26-18.26-18.26z" p-id="21374" fill="#424242"></path></svg>